<svg preserveAspectRatio="none" width="100%" height="100%" overflow="visible" style="display: block;" viewBox="0 0 18 16" fill="none" xmlns="http://www.w3.org/2000/svg">
<path id="Braces" d="M8 2H5C4.71667 2 4.47878 2.09544 4.28711 2.28711C4.09544 2.47878 4 2.71667 4 3V5C4 5.63319 3.8167 6.20803 3.4502 6.72461C3.08353 7.24128 2.6 7.60853 2 7.8252V8.1748C2.6 8.39147 3.08353 8.75872 3.4502 9.27539C3.8167 9.79197 4 10.3668 4 11V13C4 13.2833 4.09544 13.5212 4.28711 13.7129C4.47878 13.9046 4.71667 14 5 14H8V16H5C4.16667 16 3.45833 15.7083 2.875 15.125C2.29167 14.5417 2 13.8333 2 13V11C2 10.7167 1.90456 10.4788 1.71289 10.2871C1.52122 10.0954 1.28333 10 1 10H0V6H1C1.28333 6 1.52122 5.90456 1.71289 5.71289C1.90456 5.52122 2 5.28333 2 5V3C2 2.16667 2.29167 1.45833 2.875 0.875C3.45833 0.291667 4.16667 0 5 0H8V2ZM13 0C13.8333 0 14.5417 0.291667 15.125 0.875C15.7083 1.45833 16 2.16667 16 3V5C16 5.28333 16.0954 5.52122 16.2871 5.71289C16.4788 5.90456 16.7167 6 17 6H18V10H17C16.7167 10 16.4788 10.0954 16.2871 10.2871C16.0954 10.4788 16 10.7167 16 11V13C16 13.8333 15.7083 14.5417 15.125 15.125C14.5417 15.7083 13.8333 16 13 16H10V14H13C13.2833 14 13.5212 13.9046 13.7129 13.7129C13.9046 13.5212 14 13.2833 14 13V11C14 10.3668 14.1833 9.79197 14.5498 9.27539C14.9165 8.75872 15.4 8.39147 16 8.1748V7.8252C15.4 7.60853 14.9165 7.24128 14.5498 6.72461C14.1833 6.20803 14 5.63319 14 5V3C14 2.71667 13.9046 2.47878 13.7129 2.28711C13.5212 2.09544 13.2833 2 13 2H10V0H13Z" fill="var(--fill-0, #1E1A2E)"/>
</svg>
