<svg preserveAspectRatio="none" width="100%" height="100%" overflow="visible" style="display: block;" viewBox="0 0 18 15.9998" fill="none" xmlns="http://www.w3.org/2000/svg">
<path id="Document" d="M17.1025 0.00488281C17.6067 0.0562146 18 0.482323 18 1V13.7432L17.9922 13.8701C17.9196 14.4495 17.3573 14.8612 16.7725 14.793L16.6465 14.7715C14.7928 14.3331 11.4188 13.8272 9 15.1494C6.59093 16.4664 3.23439 15.9703 1.37598 15.5332L0.678711 15.3555C0.268496 15.2419 0 14.8641 0 14.4385V1C6.65834e-08 0.447715 0.447715 4.0266e-09 1 0H17L17.1025 0.00488281ZM2 13.623C2.69086 13.7783 3.57301 13.9336 4.50488 13.9834C5.88035 14.0568 7.13418 13.8903 8.04102 13.3945C9.66947 12.5044 11.5039 12.2819 13.0586 12.2998C14.1262 12.3121 15.1417 12.4399 16 12.5947V2H2V13.623Z" fill="var(--fill-0, #1E1A2E)"/>
</svg>
