<svg preserveAspectRatio="none" width="100%" height="100%" overflow="visible" style="display: block;" viewBox="0 0 18 16.6508" fill="none" xmlns="http://www.w3.org/2000/svg">
<path id="Multiple Documents" d="M14 3C14.5523 3 15 3.44772 15 4V14.6484L14.9922 14.7725C14.9228 15.3393 14.3856 15.7476 13.8125 15.6963L13.6895 15.6777C12.0518 15.3407 9.25201 14.9885 7.5 16C5.80034 16.9813 3.01102 16.6474 1.35547 16.3203L0.72168 16.1846C0.289952 16.0844 0 15.6952 0 15.252V4C0 3.44772 0.447715 3 1 3H14ZM2 14.4033C2.59213 14.5114 3.29883 14.6135 4.01465 14.6426C5.17458 14.6896 6.03094 14.5384 6.5 14.2676C7.82414 13.5031 9.37903 13.3287 10.6445 13.333C11.4784 13.3359 12.2903 13.4179 13 13.5244V5H2V14.4033ZM17 0C17.5177 4.52567e-08 17.9438 0.393332 17.9951 0.897461C17.9985 0.931163 18 0.965392 18 1V13C18 13.5523 17.5523 14 17 14C16.4477 14 16 13.5523 16 13V2H3C2.44772 2 2 1.55228 2 1C2 0.447715 2.44772 -4.82823e-08 3 0H17Z" fill="var(--fill-0, #1E1A2E)"/>
</svg>
