<svg preserveAspectRatio="none" width="100%" height="100%" overflow="visible" style="display: block;" viewBox="0 0 20 16" fill="none" xmlns="http://www.w3.org/2000/svg">
<path id="Stadium" d="M12 0C16.4183 0 20 3.58172 20 8C20 12.2801 16.6389 15.7748 12.4121 15.9893L12 16H8L7.58789 15.9893C3.36114 15.7748 0 12.2801 0 8C0 3.58172 3.58172 6.44256e-08 8 0H12ZM8 2C4.68629 2 2 4.68629 2 8C2 11.3137 4.68629 14 8 14H12C15.3137 14 18 11.3137 18 8C18 4.68629 15.3137 2 12 2H8Z" fill="var(--fill-0, #1E1A2E)"/>
</svg>
