<svg preserveAspectRatio="none" width="100%" height="100%" overflow="visible" style="display: block;" viewBox="0 0 20 20" fill="none" xmlns="http://www.w3.org/2000/svg">
<g id="google-icon-logo-svgrepo-com 2" clip-path="url(#clip0_0_93)">
<path id="Vector" d="M19.7617 10.1871C19.7617 9.36771 19.6952 8.76977 19.5513 8.14969H10.1947V11.848H15.6868C15.5761 12.7671 14.9782 14.1512 13.6494 15.0813L13.6308 15.2051L16.5892 17.4969L16.7941 17.5174C18.6765 15.7789 19.7617 13.2211 19.7617 10.1871Z" fill="var(--fill-0, #4285F4)"/>
<path id="Vector_2" d="M10.1947 19.9313C12.8853 19.9313 15.1442 19.0454 16.7941 17.5174L13.6494 15.0813C12.8079 15.6682 11.6784 16.0779 10.1947 16.0779C7.55931 16.0779 5.3226 14.3395 4.52527 11.9366L4.4084 11.9466L1.33221 14.3273L1.29198 14.4391C2.93076 17.6945 6.29695 19.9313 10.1947 19.9313Z" fill="var(--fill-0, #34A853)"/>
<path id="Vector_3" d="M4.52527 11.9366C4.31489 11.3166 4.19313 10.6521 4.19313 9.96565C4.19313 9.27908 4.31489 8.61473 4.5142 7.99466L4.50863 7.8626L1.39389 5.44366L1.29198 5.49214C0.616565 6.84305 0.229008 8.36008 0.229008 9.96565C0.229008 11.5712 0.616565 13.0882 1.29198 14.4391L4.52527 11.9366Z" fill="var(--fill-0, #FBBC05)"/>
<path id="Vector_4" d="M10.1947 3.85336C12.066 3.85336 13.3282 4.66168 14.048 5.33718L16.8605 2.59107C15.1332 0.985496 12.8853 8.9407e-08 10.1947 8.9407e-08C6.29695 8.9407e-08 2.93076 2.23672 1.29198 5.49214L4.5142 7.99466C5.3226 5.59183 7.55931 3.85336 10.1947 3.85336Z" fill="var(--fill-0, #EB4335)"/>
</g>
<defs>
<clipPath id="clip0_0_93">
<rect width="20" height="20" fill="white"/>
</clipPath>
</defs>
</svg>
